HIERARCHY
ROOT Hips
{
	OFFSET 0.000000 71.427986 0.000000
	CHANNELS 6 Xposition Yposition Zposition Xrotation Yrotation Zrotation
	JOINT Pelvis
	{
		OFFSET 0.000000 0.000000 0.000000
		CHANNELS 3 Xrotation Yrotation Zrotation
		JOINT LeftUpLeg
		{
			OFFSET 6.797100 -2.508499 -1.318700
			CHANNELS 3 Xrotation Yrotation Zrotation
			JOINT LeftLeg
			{
				OFFSET 0.069008 -29.241863 0.690200
				CHANNELS 3 Xrotation Yrotation Zrotation
				JOINT LeftFoot
				{
					OFFSET -0.069008 -29.568123 -0.266800
					CHANNELS 3 Xrotation Yrotation Zrotation
					JOINT LeftToeBase
					{
						OFFSET 3.145500 -8.631000 16.059900
						CHANNELS 3 Xrotation Yrotation Zrotation
						End Site
						{
							OFFSET 0.000000 18.501587 0.000000
						}
					}
				}
			}
			JOINT Left_ShortSleeve
			{
				OFFSET 0.265923 -10.480953 1.153800
				CHANNELS 3 Xrotation Yrotation Zrotation
				End Site
				{
					OFFSET 1.725763 19.823879 0.000000
				}
			}
		}
		JOINT RightUpLeg
		{
			OFFSET -6.797100 -2.508499 -1.318700
			CHANNELS 3 Xrotation Yrotation Zrotation
			JOINT RightLeg
			{
				OFFSET -0.082453 -29.241932 0.688000
				CHANNELS 3 Xrotation Yrotation Zrotation
				JOINT RightFoot
				{
					OFFSET 0.082453 -29.568058 -0.264600
					CHANNELS 3 Xrotation Yrotation Zrotation
					JOINT RightToeBase
					{
						OFFSET -3.115300 -8.682800 16.113400
						CHANNELS 3 Xrotation Yrotation Zrotation
						End Site
						{
							OFFSET 0.000000 18.567114 0.000000
						}
					}
				}
			}
			JOINT Right_ShortSleeve
			{
				OFFSET -0.265923 -10.480953 1.153800
				CHANNELS 3 Xrotation Yrotation Zrotation
				End Site
				{
					OFFSET -1.725766 19.823910 0.000000
				}
			}
		}
	}
	JOINT Spine
	{
		OFFSET 0.000000 13.368103 0.470500
		CHANNELS 3 Xrotation Yrotation Zrotation
		JOINT Spine1
		{
			OFFSET 0.147000 13.837402 0.538800
			CHANNELS 3 Xrotation Yrotation Zrotation
			JOINT Spine2
			{
				OFFSET 0.168000 16.242897 -1.435500
				CHANNELS 3 Xrotation Yrotation Zrotation
				JOINT Neck
				{
					OFFSET 0.217200 18.631500 -1.679100
					CHANNELS 3 Xrotation Yrotation Zrotation
					JOINT Head
					{
						OFFSET 0.000000 6.599396 1.385900
						CHANNELS 3 Xrotation Yrotation Zrotation
						JOINT Hat
						{
							OFFSET -0.532200 27.220596 -10.096100
							CHANNELS 3 Xrotation Yrotation Zrotation
							End Site
							{
								OFFSET 0.000000 22.029861 0.000000
							}
						}
						JOINT HairD
						{
							OFFSET -10.777400 17.437393 -1.325900
							CHANNELS 3 Xrotation Yrotation Zrotation
							JOINT HairD1
							{
								OFFSET -3.290299 -11.051193 1.062200
								CHANNELS 3 Xrotation Yrotation Zrotation
								End Site
								{
									OFFSET 0.000000 11.579437 0.000000
								}
							}
						}
						JOINT HairB
						{
							OFFSET -10.777400 17.437393 1.467900
							CHANNELS 3 Xrotation Yrotation Zrotation
							JOINT HairB1
							{
								OFFSET -1.561200 -12.956299 3.590200
								CHANNELS 3 Xrotation Yrotation Zrotation
								End Site
								{
									OFFSET 0.000000 13.534866 0.000000
								}
							}
						}
						JOINT HairA
						{
							OFFSET 9.713100 17.437393 1.467900
							CHANNELS 3 Xrotation Yrotation Zrotation
							JOINT HairA1
							{
								OFFSET 1.561200 -12.956299 3.590200
								CHANNELS 3 Xrotation Yrotation Zrotation
								End Site
								{
									OFFSET 0.000000 13.534866 0.000000
								}
							}
						}
						JOINT HairC
						{
							OFFSET 9.713100 17.437393 -1.325900
							CHANNELS 3 Xrotation Yrotation Zrotation
							JOINT HairC1
							{
								OFFSET 3.290300 -11.051193 1.062200
								CHANNELS 3 Xrotation Yrotation Zrotation
								End Site
								{
									OFFSET 0.000000 11.579437 0.000000
								}
							}
						}
					}
				}
				JOINT LeftShoulder
				{
					OFFSET 5.101800 15.108002 -2.763700
					CHANNELS 3 Xrotation Yrotation Zrotation
					JOINT LeftArm
					{
						OFFSET 9.825497 2.506317 -1.597400
						CHANNELS 3 Xrotation Yrotation Zrotation
						JOINT LeftForeArm
						{
							OFFSET 21.966244 0.000000 0.000000
							CHANNELS 3 Xrotation Yrotation Zrotation
							JOINT LeftHand
							{
								OFFSET 33.879036 0.000000 0.000000
								CHANNELS 3 Xrotation Yrotation Zrotation
								JOINT LeftHandThumb1
								{
									OFFSET 6.715286 -2.359680 3.363841
									CHANNELS 3 Xrotation Yrotation Zrotation
									JOINT LeftHandThumb2
									{
										OFFSET 2.507072 -1.447464 1.447461
										CHANNELS 3 Xrotation Yrotation Zrotation
										JOINT LeftHandThumb3
										{
											OFFSET 2.898338 -1.673355 1.673357
											CHANNELS 3 Xrotation Yrotation Zrotation
											End Site
											{
												OFFSET -0.295959 3.727692 -0.131651
											}
										}
									}
								}
								JOINT LeftHandIndex1
								{
									OFFSET 14.190811 -0.254547 3.840278
									CHANNELS 3 Xrotation Yrotation Zrotation
									JOINT LeftHandIndex2
									{
										OFFSET 3.551727 0.000000 -0.000000
										CHANNELS 3 Xrotation Yrotation Zrotation
										JOINT LeftHandIndex3
										{
											OFFSET 2.894196 0.000000 0.000000
											CHANNELS 3 Xrotation Yrotation Zrotation
											End Site
											{
												OFFSET -1.000603 2.690872 0.366626
											}
										}
									}
								}
								JOINT LeftHandMiddle1
								{
									OFFSET 13.776489 0.000000 0.000000
									CHANNELS 3 Xrotation Yrotation Zrotation
									JOINT LeftHandMiddle2
									{
										OFFSET 3.438232 0.000000 0.000000
										CHANNELS 3 Xrotation Yrotation Zrotation
										JOINT LeftHandMiddle3
										{
											OFFSET 3.691551 0.000000 0.000000
											CHANNELS 3 Xrotation Yrotation Zrotation
											End Site
											{
												OFFSET -1.082298 3.499527 0.457670
											}
										}
									}
								}
								JOINT LeftHandRing1
								{
									OFFSET 13.966164 -0.268127 -3.067488
									CHANNELS 3 Xrotation Yrotation Zrotation
									JOINT LeftHandRing2
									{
										OFFSET 3.162567 0.000000 0.000000
										CHANNELS 3 Xrotation Yrotation Zrotation
										JOINT LeftHandRing3
										{
											OFFSET 3.324348 0.000000 0.000000
											CHANNELS 3 Xrotation Yrotation Zrotation
											End Site
											{
												OFFSET -0.861900 3.184998 0.405154
											}
										}
									}
								}
								JOINT LeftHandPinky1
								{
									OFFSET 13.131393 -0.168503 -5.746925
									CHANNELS 3 Xrotation Yrotation Zrotation
									JOINT LeftHandPinky2
									{
										OFFSET 2.849182 0.000000 0.000000
										CHANNELS 3 Xrotation Yrotation Zrotation
										JOINT LeftHandPinky3
										{
											OFFSET 2.805038 0.000000 0.000000
											CHANNELS 3 Xrotation Yrotation Zrotation
											End Site
											{
												OFFSET -0.882500 2.642609 0.325652
											}
										}
									}
								}
							}
							JOINT Left_Sleeve
							{
								OFFSET 6.592125 -0.646545 0.805568
								CHANNELS 3 Xrotation Yrotation Zrotation
								End Site
								{
									OFFSET -0.000179 20.275787 -0.000000
								}
							}
						}
					}
				}
				JOINT RightShoulder
				{
					OFFSET -5.731700 15.108002 -2.763700
					CHANNELS 3 Xrotation Yrotation Zrotation
					JOINT RightArm
					{
						OFFSET -9.825497 2.506317 -1.597400
						CHANNELS 3 Xrotation Yrotation Zrotation
						JOINT RightForeArm
						{
							OFFSET -21.966242 0.000000 0.000000
							CHANNELS 3 Xrotation Yrotation Zrotation
							JOINT RightHand
							{
								OFFSET -33.879032 0.000000 0.000000
								CHANNELS 3 Xrotation Yrotation Zrotation
								JOINT RightHandThumb1
								{
									OFFSET -6.715286 -2.359680 3.363841
									CHANNELS 3 Xrotation Yrotation Zrotation
									JOINT RightHandThumb2
									{
										OFFSET -2.507072 -1.447464 1.447461
										CHANNELS 3 Xrotation Yrotation Zrotation
										JOINT RightHandThumb3
										{
											OFFSET -2.898338 -1.673355 1.673357
											CHANNELS 3 Xrotation Yrotation Zrotation
											End Site
											{
												OFFSET 0.295959 3.727692 -0.131651
											}
										}
									}
								}
								JOINT RightHandIndex1
								{
									OFFSET -14.190811 -0.254547 3.840278
									CHANNELS 3 Xrotation Yrotation Zrotation
									JOINT RightHandIndex2
									{
										OFFSET -3.551727 0.000000 -0.000000
										CHANNELS 3 Xrotation Yrotation Zrotation
										JOINT RightHandIndex3
										{
											OFFSET -2.894196 0.000000 0.000000
											CHANNELS 3 Xrotation Yrotation Zrotation
											End Site
											{
												OFFSET 1.000603 2.690872 0.366626
											}
										}
									}
								}
								JOINT RightHandMiddle1
								{
									OFFSET -13.776489 0.000000 0.000000
									CHANNELS 3 Xrotation Yrotation Zrotation
									JOINT RightHandMiddle2
									{
										OFFSET -3.438232 0.000000 0.000000
										CHANNELS 3 Xrotation Yrotation Zrotation
										JOINT RightHandMiddle3
										{
											OFFSET -3.691551 0.000000 0.000000
											CHANNELS 3 Xrotation Yrotation Zrotation
											End Site
											{
												OFFSET 1.082298 3.499527 0.457670
											}
										}
									}
								}
								JOINT RightHandRing1
								{
									OFFSET -13.966164 -0.268127 -3.067488
									CHANNELS 3 Xrotation Yrotation Zrotation
									JOINT RightHandRing2
									{
										OFFSET -3.162567 0.000000 0.000000
										CHANNELS 3 Xrotation Yrotation Zrotation
										JOINT RightHandRing3
										{
											OFFSET -3.324348 0.000000 0.000000
											CHANNELS 3 Xrotation Yrotation Zrotation
											End Site
											{
												OFFSET 0.861900 3.184998 0.405154
											}
										}
									}
								}
								JOINT RightHandPinky1
								{
									OFFSET -13.131393 -0.168503 -5.746925
									CHANNELS 3 Xrotation Yrotation Zrotation
									JOINT RightHandPinky2
									{
										OFFSET -2.849182 0.000000 0.000000
										CHANNELS 3 Xrotation Yrotation Zrotation
										JOINT RightHandPinky3
										{
											OFFSET -2.805038 0.000000 0.000000
											CHANNELS 3 Xrotation Yrotation Zrotation
											End Site
											{
												OFFSET 0.882500 2.642609 0.325652
											}
										}
									}
								}
							}
							JOINT Right_Sleeve
							{
								OFFSET -6.592125 -0.646545 0.805568
								CHANNELS 3 Xrotation Yrotation Zrotation
								End Site
								{
									OFFSET 0.000179 20.275787 -0.000000
								}
							}
						}
					}
				}
				JOINT Bind_Right_JacketString
				{
					OFFSET -3.534800 11.969597 7.200700
					CHANNELS 3 Xrotation Yrotation Zrotation
					JOINT Bind_Right_JacketString1
					{
						OFFSET -0.319900 -6.102600 2.794100
						CHANNELS 3 Xrotation Yrotation Zrotation
						End Site
						{
							OFFSET 0.000000 6.719452 0.000000
						}
					}
				}
				JOINT Bind_Left_JacketString
				{
					OFFSET 2.904800 11.969597 7.200700
					CHANNELS 3 Xrotation Yrotation Zrotation
					JOINT Bind_Left_JacketString1
					{
						OFFSET 0.364800 -5.904503 3.186800
						CHANNELS 3 Xrotation Yrotation Zrotation
						End Site
						{
							OFFSET 0.000000 6.719513 0.000000
						}
					}
				}
				JOINT HairE
				{
					OFFSET 5.915200 17.612701 -11.592200
					CHANNELS 3 Xrotation Yrotation Zrotation
					JOINT HairE1
					{
						OFFSET 0.289200 -7.171898 -1.284500
						CHANNELS 3 Xrotation Yrotation Zrotation
						End Site
						{
							OFFSET 0.000000 7.291756 0.000000
						}
					}
				}
				JOINT HairF
				{
					OFFSET -0.864800 17.612701 -11.592200
					CHANNELS 3 Xrotation Yrotation Zrotation
					JOINT HairF1
					{
						OFFSET 0.000000 -14.087097 -2.127501
						CHANNELS 3 Xrotation Yrotation Zrotation
						End Site
						{
							OFFSET 0.000000 14.246841 0.000000
						}
					}
				}
				JOINT HairG
				{
					OFFSET -8.087700 17.612701 -11.592200
					CHANNELS 3 Xrotation Yrotation Zrotation
					JOINT HairG1
					{
						OFFSET -0.293600 -6.081398 -0.910100
						CHANNELS 3 Xrotation Yrotation Zrotation
						End Site
						{
							OFFSET 0.000000 6.156120 0.000000
						}
					}
				}
			}
		}
	}
	JOINT Pouch
	{
		OFFSET 0.000000 4.394501 10.847300
		CHANNELS 3 Xrotation Yrotation Zrotation
		End Site
		{
			OFFSET 0.000000 21.880577 0.000000
		}
	}
	JOINT Bag
	{
		OFFSET -13.229000 4.813004 -0.593300
		CHANNELS 3 Xrotation Yrotation Zrotation
		End Site
		{
			OFFSET 0.000000 21.880577 0.000000
		}
	}
	JOINT OccupyGuyFacialAnim_Joint
	{
		OFFSET 1.000000 -70.206398 -1.655000
		CHANNELS 3 Xrotation Yrotation Zrotation
		End Site
		{
			OFFSET 0.000000 21.880577 0.000000
		}
	}
}
MOTION
Frames: 5
Frame Time: 0.033333
0.000876 68.828514 1.047061 -6.416688 -2.683397 -2.945315 0.000000 0.000000 -0.000000 -23.358484 2.908794 1.378121 63.322629 24.027639 1.319069 -7.041350 0.776065 -7.969624 -0.000001 -0.000000 0.000000 -0.000001 -0.000000 0.000001 -9.297592 -3.411457 7.125582 29.696758 2.451720 0.172713 -13.820909 0.738862 -5.899894 -0.000000 -0.000000 -0.000000 -0.000000 0.000000 0.000001 1.778742 -0.176205 0.991730 3.556054 -0.243660 1.039295 3.556055 -0.243661 1.039294 4.769110 -1.685496 0.815221 1.923105 5.270098 4.383720 -0.000000 -0.000000 -0.000000 -0.000000 -0.000000 -0.000000 -0.000000 -0.000000 -0.000000 -0.000000 -0.000000 -0.000000 -0.000000 0.000000 -0.000000 -0.000000 -0.000000 -0.000000 -0.000000 0.000000 -0.000000 -0.000000 -0.000000 -0.000000 -0.000000 -0.000000 -0.000000 0.611402 -8.206453 -9.122459 1.335901 -8.247145 -72.435666 21.821597 -9.793503 4.278486 -4.249339 -10.557534 10.634322 14.786096 3.899261 14.309805 6.729964 13.911026 9.856573 -0.000000 -0.000000 -0.000002 0.502008 6.676458 -21.091146 2.577288 1.321997 -33.795441 -0.000001 0.000000 -0.000002 0.819387 7.158320 -28.826038 5.168426 0.500684 -34.762425 -0.000000 0.000002 -0.000003 1.250903 8.750445 -35.369325 7.025407 1.621584 -43.499258 -0.000000 -0.000000 -0.000001 -3.901987 12.728845 -38.236598 9.438757 2.917422 -41.680423 -0.000002 0.000001 0.000003 0.000000 -0.000001 0.000000 0.459157 5.812913 15.924854 8.594954 18.587190 60.222072 -2.233337 24.118078 0.834958 -1.826733 14.676212 -22.841271 1.597826 0.343281 2.572424 1.238838 -15.612798 -9.936847 0.000001 0.000001 -0.000002 0.164219 -5.184909 4.282555 1.843400 0.346719 13.680399 -0.000001 0.000002 0.000002 -6.266670 -1.997594 3.989410 6.534662 -1.844877 56.162159 -0.000004 0.000000 -0.000001 -7.138826 -3.481814 21.242247 13.666337 -2.333225 124.298569 0.000001 -0.000000 -0.000004 -11.229634 -21.953066 22.361051 15.127942 -4.312341 110.722038 0.000001 0.000001 -0.000001 0.000001 -0.000001 -0.000000 0.000000 0.000000 -0.000000 0.000000 -0.000000 0.000000 0.000000 0.000000 -0.000000 0.000000 0.000000 -0.000000 0.000000 0.000000 -0.000000 0.000000 -0.000000 0.000000 0.000000 0.000000 -0.000000 0.000000 0.000000 -0.000000 0.000000 0.000000 -0.000000 0.000000 -0.000000 0.000000 0.000000 0.000000 -0.000000 0.000000 0.000000 -0.000000 0.000000 0.000000 -0.000000 
0.113891 68.973984 3.361641 -5.832832 -3.966713 -1.865156 -0.000000 0.000000 0.000000 -24.890058 2.105959 -0.123993 53.752540 24.987106 1.387225 -5.529335 0.792653 -9.522818 0.000001 0.000001 0.000001 0.000000 0.000000 -0.000000 -7.791843 -3.496219 5.527300 29.783754 4.138178 0.258056 -15.661745 0.922704 -6.287261 -0.000000 0.000000 -0.000000 0.000001 0.000001 -0.000001 1.718823 -0.035248 0.666565 3.437397 -0.045235 0.628562 3.437393 -0.045233 0.628562 5.873344 -1.722731 0.157602 3.321568 4.668707 4.757624 0.000000 0.000000 -0.000001 0.000000 0.000000 -0.000001 0.000000 0.000000 -0.000001 0.000000 0.000000 -0.000001 0.000000 0.000000 -0.000001 0.000000 0.000000 -0.000001 0.000000 0.000000 -0.000001 0.000000 0.000000 -0.000001 0.000000 0.000000 -0.000001 0.579296 -7.113772 -9.902515 3.033623 -5.439156 -72.882100 23.864865 -8.578821 4.192479 -4.556656 -9.194340 8.881053 14.786103 3.899253 14.309809 6.729969 13.911009 9.856573 0.000000 0.000001 -0.000001 0.500269 6.671963 -21.038241 2.574628 1.317989 -33.742757 0.000002 -0.000000 -0.000000 0.817057 7.154119 -28.773108 5.165720 0.496786 -34.709703 0.000005 0.000002 0.000001 1.248131 8.746567 -35.316217 7.022153 1.618131 -43.446502 -0.000001 0.000003 0.000001 -3.904996 12.725083 -38.183261 9.435575 2.913874 -41.627585 0.000001 -0.000001 0.000003 -0.000000 0.000001 -0.000001 0.429243 6.847152 14.941831 8.576762 20.385316 59.714684 -14.073722 27.822217 6.678700 -1.859193 16.845016 -21.294494 1.597830 0.343280 2.572423 1.238839 -15.612798 -9.936842 -0.000002 0.000002 -0.000004 0.164221 -5.184905 4.282550 1.843393 0.346727 13.680398 0.000002 -0.000004 -0.000002 -6.266670 -1.997598 3.989406 6.534665 -1.844880 56.162163 0.000001 0.000001 -0.000001 -7.138825 -3.481814 21.242245 13.666336 -2.333228 124.298569 0.000003 -0.000001 -0.000002 -11.229628 -21.953066 22.361051 15.127940 -4.312342 110.722038 0.000001 -0.000002 0.000000 0.000000 0.000003 -0.000001 0.000000 0.000000 -0.000000 0.000000 0.000000 -0.000000 0.000000 0.000000 0.000000 0.000000 0.000000 0.000000 0.000000 0.000000 -0.000000 0.000000 0.000000 -0.000000 0.000000 0.000000 0.000000 0.000000 0.000000 0.000000 0.000000 0.000000 -0.000000 0.000000 0.000000 -0.000000 -0.000000 0.000000 0.000000 -0.000000 0.000000 0.000000 -0.000000 0.000000 0.000000 
0.253025 69.091469 5.713059 -5.162781 -4.679538 -0.701423 0.000000 -0.000000 0.000000 -24.507477 1.451246 -1.461633 41.332374 23.300193 1.282459 -4.838509 0.713068 -8.546477 -0.000001 -0.000002 0.000000 -0.000002 0.000000 -0.000000 -6.205629 -3.444177 4.083898 29.998440 4.975608 0.303085 -18.061759 1.241760 -7.090920 -0.000000 -0.000000 -0.000000 0.000000 0.000001 -0.000000 1.673961 -0.005004 0.317873 3.347889 -0.033468 0.255340 3.347889 -0.033467 0.255341 6.927378 -1.807754 -0.390830 4.819104 4.083912 4.918469 0.000001 0.000000 -0.000001 0.000001 0.000000 -0.000001 0.000001 0.000000 -0.000001 0.000001 0.000000 -0.000001 0.000001 -0.000000 -0.000000 0.000001 0.000000 -0.000001 0.000001 -0.000000 -0.000000 0.000001 0.000000 -0.000001 0.000001 0.000000 -0.000001 0.564704 -6.185940 -10.643223 4.849540 -2.906108 -73.210913 25.620408 -7.581219 4.064655 -4.794333 -8.191346 7.134513 14.786113 3.899244 14.309791 6.729957 13.911019 9.856587 -0.000001 -0.000000 -0.000001 0.496303 6.661656 -20.917133 2.568525 1.308845 -33.621927 0.000001 0.000002 0.000000 0.811768 7.144513 -28.651769 5.159530 0.487826 -34.588986 0.000002 0.000002 -0.000003 1.241781 8.737683 -35.194575 7.014667 1.610237 -43.325611 -0.000001 -0.000002 -0.000001 -3.911911 12.716494 -38.061072 9.428329 2.905712 -41.506527 0.000001 -0.000002 0.000004 0.000001 0.000000 0.000000 0.426194 7.514976 14.255354 9.211422 21.910552 58.669399 -29.459296 31.603381 16.636736 -3.117587 17.855019 -17.110346 1.597828 0.343281 2.572426 1.238839 -15.612802 -9.936844 -0.000002 0.000000 0.000001 0.164222 -5.184907 4.282554 1.843397 0.346719 13.680397 -0.000000 -0.000005 0.000003 -6.266669 -1.997592 3.989411 6.534663 -1.844880 56.162163 0.000003 -0.000001 0.000001 -7.138825 -3.481816 21.242245 13.666336 -2.333226 124.298569 0.000000 -0.000001 -0.000002 -11.229628 -21.953065 22.361052 15.127942 -4.312343 110.722031 0.000001 0.000000 0.000002 -0.000000 0.000002 -0.000000 0.000000 0.000000 -0.000000 0.000000 -0.000000 0.000000 0.000000 0.000000 -0.000000 0.000000 0.000000 -0.000000 0.000000 0.000000 -0.000000 0.000000 -0.000000 -0.000000 0.000000 0.000000 -0.000000 0.000000 0.000000 -0.000000 0.000000 0.000000 -0.000000 0.000000 -0.000000 -0.000000 0.000000 -0.000000 0.000000 0.000000 -0.000000 0.000000 0.000000 -0.000000 0.000000 
0.400120 69.146400 8.099122 -4.766965 -5.330623 0.201118 0.000001 0.000001 -0.000000 -22.589589 1.216587 -2.112753 27.179800 18.976566 1.051046 -2.788999 0.500672 -6.899832 -0.000001 -0.000001 0.000001 -0.000000 -0.000000 -0.000000 -4.408578 -3.186746 2.859865 30.221784 5.596911 0.338595 -20.472111 1.640134 -8.127106 0.000000 -0.000000 0.000000 0.000000 0.000000 -0.000002 1.666022 0.016371 -0.033401 3.332039 -0.000925 -0.014490 3.332039 -0.000928 -0.014490 7.923455 -1.940159 -0.837600 6.366667 3.473878 4.879323 0.000000 0.000000 -0.000000 0.000000 0.000000 -0.000000 0.000000 0.000000 -0.000000 0.000000 0.000000 -0.000000 0.000000 0.000000 0.000000 0.000000 0.000000 -0.000000 0.000000 0.000000 0.000000 0.000000 0.000000 -0.000000 0.000000 0.000000 -0.000000 0.559321 -5.518407 -11.339591 6.763119 -0.755864 -73.501592 26.865330 -6.907214 3.949297 -4.965781 -7.620155 5.641704 14.786116 3.899245 14.309795 6.729969 13.911012 9.856562 0.000000 0.000001 -0.000001 0.489838 6.644770 -20.718851 2.558579 1.293827 -33.424183 0.000005 0.000000 -0.000000 0.803136 7.128774 -28.453149 5.149444 0.473158 -34.391334 -0.000002 0.000003 -0.000004 1.231426 8.723106 -34.995448 7.002454 1.597242 -43.127723 0.000000 -0.000001 0.000001 -3.923177 12.702396 -37.861050 9.416474 2.892294 -41.308373 -0.000000 -0.000001 -0.000001 0.000003 0.000000 0.000000 0.432014 7.858459 13.777128 10.162836 22.544402 57.571221 -47.129371 33.531608 31.090680 -5.576675 17.025626 -10.541235 1.597829 0.343281 2.572426 1.238839 -15.612800 -9.936848 -0.000001 -0.000001 0.000002 0.164224 -5.184912 4.282554 1.843398 0.346727 13.680400 -0.000002 -0.000003 -0.000002 -6.266667 -1.997592 3.989412 6.534663 -1.844879 56.162163 0.000002 -0.000002 0.000001 -7.138823 -3.481815 21.242249 13.666336 -2.333223 124.298569 0.000003 -0.000003 -0.000003 -11.229626 -21.953070 22.361051 15.127938 -4.312341 110.722038 0.000001 -0.000001 0.000004 -0.000000 -0.000003 -0.000000 0.000000 0.000000 -0.000000 0.000000 0.000000 -0.000000 0.000000 0.000000 -0.000000 0.000000 0.000000 -0.000000 0.000000 0.000000 -0.000000 0.000000 0.000000 0.000000 0.000000 0.000000 -0.000000 0.000000 0.000000 -0.000000 0.000000 0.000000 -0.000000 0.000000 0.000000 0.000000 0.000001 0.000001 -0.000000 0.000001 0.000001 -0.000000 0.000001 0.000001 -0.000000 
0.573647 69.092384 10.551100 -4.716554 -6.835075 0.610912 0.000000 -0.000000 0.000000 -24.348448 1.995963 -2.744570 22.418236 14.136812 0.780992 -5.206307 0.305152 -1.167196 -0.000000 0.000000 -0.000000 -0.000000 -0.000000 -0.000000 -2.462552 -2.861599 1.885157 30.707195 6.597942 0.408452 -22.883389 2.240610 -9.654402 -0.000000 -0.000000 -0.000000 -0.000001 -0.000001 -0.000000 1.692473 0.141615 -0.265372 3.384213 0.248968 -0.149046 3.384214 0.248968 -0.149046 8.855927 -2.116411 -1.220871 7.821959 2.791689 4.718521 0.000001 0.000000 -0.000001 0.000001 0.000000 -0.000001 0.000001 0.000000 -0.000000 0.000001 0.000000 -0.000001 0.000001 0.000000 -0.000000 0.000001 0.000000 -0.000001 0.000001 0.000000 -0.000000 0.000001 0.000000 -0.000001 0.000001 0.000000 -0.000001 0.555653 -5.124206 -11.978542 8.657817 0.973065 -73.837678 27.475860 -6.589644 3.886971 -5.090074 -7.414784 4.463367 14.786087 3.899258 14.309829 6.729984 13.910992 9.856539 -0.000001 -0.000001 -0.000001 0.481033 6.621497 -20.446057 2.544974 1.273123 -33.152089 0.000001 -0.000001 -0.000000 0.791337 7.107072 -28.179907 5.135657 0.452901 -34.119445 0.000000 0.000002 -0.000004 1.217265 8.703005 -34.721526 6.985738 1.579310 -42.855455 0.000001 0.000001 0.000000 -3.938616 12.682940 -37.585862 9.400256 2.873779 -41.035780 -0.000000 0.000001 -0.000002 0.000002 0.000000 0.000001 0.440839 8.032360 13.358564 10.861694 22.230025 56.967941 -63.377530 31.941147 47.082386 -8.383127 14.341724 -2.642607 1.597829 0.343283 2.572429 1.238836 -15.612802 -9.936845 -0.000000 -0.000001 0.000001 0.164221 -5.184905 4.282556 1.843398 0.346726 13.680397 -0.000002 0.000000 -0.000001 -6.266673 -1.997593 3.989412 6.534661 -1.844883 56.162163 0.000002 0.000001 -0.000004 -7.138826 -3.481812 21.242247 13.666339 -2.333226 124.298569 -0.000001 -0.000004 -0.000002 -11.229628 -21.953068 22.361058 15.127942 -4.312343 110.722038 -0.000000 0.000001 -0.000003 0.000003 -0.000001 0.000001 -0.000000 -0.000000 0.000000 -0.000000 -0.000000 -0.000000 -0.000000 -0.000000 0.000000 -0.000000 -0.000000 0.000000 -0.000000 -0.000000 0.000000 -0.000000 -0.000000 -0.000000 -0.000000 -0.000000 0.000000 -0.000000 -0.000000 0.000000 -0.000000 -0.000000 0.000000 -0.000000 -0.000000 -0.000000 0.000000 -0.000000 0.000000 0.000000 -0.000000 0.000000 0.000000 -0.000000 0.000000 
